<svg xmlns="http://www.w3.org/2000/svg" xmlns:xlink="http://www.w3.org/1999/xlink" viewBox="0 0 203 49">
  <defs>
    <path id="logo__a" d="M18.8 14.4a2.4 2.4 0 1 0-4.3-2.3 2.4 2.4 0 0 0 4.3 2.3zM21 1.8A14.2 14.2 0 1 1 7.3 26.7 14.2 14.2 0 0 1 21 1.8z"/>
    <linearGradient id="logo__b" x1="24.9%" x2="75%" y1="93.4%" y2="6.6%">
      <stop offset="0%" stop-color="#009949"/>
      <stop offset="100%" stop-color="#D2DB2F"/>
    </linearGradient>
    <path id="logo__d" d="M11 8.9a5.4 5.4 0 1 0-9.4-5.2A5.4 5.4 0 0 0 11 9zM1 3.4a6 6 0 1 1 10.6 5.8A6 6 0 0 1 1 3.4z"/>
    <linearGradient id="logo__e" x1="37.4%" x2="77.1%" y1="55%" y2="38.9%">
      <stop offset="0%" stop-color="#C3D535"/>
      <stop offset="100%" stop-color="#009C49"/>
    </linearGradient>
    <path id="logo__g" d="M11 8.7a5.4 5.4 0 1 0-9.5-5.1A5.4 5.4 0 0 0 11 8.7zM1 3.2a6 6 0 1 1 10.6 5.9A6 6 0 0 1 1 3.2z"/>
    <path id="logo__i" d="M18.8 14.4a2.4 2.4 0 1 1-4.3-2.4 2.4 2.4 0 0 1 4.3 2.4zM21 1.8A14.2 14.2 0 1 0 7.4 26.7 14.2 14.2 0 0 0 21 1.8z"/>
    <path id="logo__k" d="M10 8.3a5 5 0 1 0-8.7-4.8A5 5 0 0 0 10 8.3zM.8 3.2a5.6 5.6 0 1 1 9.8 5.4A5.6 5.6 0 0 1 .8 3.2z"/>
    <linearGradient id="logo__l" x1="37.8%" x2="74.2%" y1="55.2%" y2="39.7%">
      <stop offset="0%" stop-color="#C3D535"/>
      <stop offset="100%" stop-color="#009C49"/>
    </linearGradient>
    <path id="logo__n" d="M10 8.1a5 5 0 1 0-8.8-4.7A5 5 0 0 0 10 8zm-9.3-5a5.6 5.6 0 1 1 9.8 5.4A5.6 5.6 0 0 1 .7 3z"/>
    <path id="logo__p" d="M9.8 7.7a4.8 4.8 0 1 0-8.4-4.6 4.8 4.8 0 0 0 8.4 4.6zm-9-4.9A5.4 5.4 0 1 1 10.4 8 5.4 5.4 0 0 1 .9 2.8z"/>
    <linearGradient id="logo__q" x1="48.4%" x2="66.8%" y1="62.4%" y2="29.3%">
      <stop offset="0%" stop-color="#D2DB2F"/>
      <stop offset="100%" stop-color="#009949"/>
    </linearGradient>
    <path id="logo__s" d="M1.3 3.2a4.6 4.6 0 1 0 8 4.4 4.6 4.6 0 0 0-8-4.4zm8.5 4.7a5.2 5.2 0 1 1-9-5 5.2 5.2 0 0 1 9 5z"/>
    <linearGradient id="logo__t" x1="46.9%" x2="64.5%" y1="62.7%" y2="30.7%">
      <stop offset="0%" stop-color="#009949"/>
      <stop offset="100%" stop-color="#D2DB2F"/>
    </linearGradient>
    <path id="logo__v" d="M9.6 7.9a4.8 4.8 0 1 0-8.4-4.6 4.8 4.8 0 0 0 8.4 4.6zm-8.9-5a5.4 5.4 0 1 1 9.4 5.3A5.4 5.4 0 0 1 .7 3z"/>
    <linearGradient id="logo__w" x1="47.9%" x2="66.3%" y1="63%" y2="29.8%">
      <stop offset="0%" stop-color="#D2DB2F"/>
      <stop offset="100%" stop-color="#009949"/>
    </linearGradient>
    <path id="logo__y" d="M9.2 7.5a4.5 4.5 0 1 0-8-4.3 4.5 4.5 0 0 0 8 4.3zM.8 3a5.1 5.1 0 1 1 9 5 5.1 5.1 0 0 1-9-5z"/>
    <linearGradient id="logo__z" x1="40%" x2="73.1%" y1="53.6%" y2="39.5%">
      <stop offset="0%" stop-color="#C3D535"/>
      <stop offset="100%" stop-color="#009C49"/>
    </linearGradient>
    <path id="logo__B" d="M9 7.1A4.4 4.4 0 1 0 1.4 3a4.4 4.4 0 0 0 7.8 4.2zM1 2.6C2.2.2 5.2-.4 7.6 1c2.4 1.4 3.2 4.1 2 6.5A5 5 0 0 1 .8 2.6z"/>
    <linearGradient id="logo__C" x1="47.8%" x2="64.4%" y1="61.7%" y2="31.9%">
      <stop offset="0%" stop-color="#D2DB2F"/>
      <stop offset="100%" stop-color="#009949"/>
    </linearGradient>
    <path id="logo__E" d="M18.8 14.4a2.4 2.4 0 1 1-4.3-2.4 2.4 2.4 0 0 1 4.3 2.4zM21 1.8A14.2 14.2 0 1 0 7.4 26.7 14.2 14.2 0 0 0 21 1.8z"/>
    <path id="logo__G" d="M18.8 14.4a2.4 2.4 0 1 1-4.3-2.4 2.4 2.4 0 0 1 4.3 2.4zM21 1.8A14.2 14.2 0 1 0 7.4 26.7 14.2 14.2 0 0 0 21 1.8z"/>
    <path id="logo__I" d="M15 12.1A7.5 7.5 0 1 0 1.7 5 7.5 7.5 0 0 0 15 12zM1 4.5a8.4 8.4 0 1 1 14.7 8.1 8.4 8.4 0 0 1-14.6-8z"/>
    <linearGradient id="logo__J" x1="40.2%" x2="68.9%" y1="72.7%" y2="21.1%">
      <stop offset="0%" stop-color="#D2DB2F"/>
      <stop offset="100%" stop-color="#009949"/>
    </linearGradient>
    <path id="logo__L" d="M14.2 11.5A7 7 0 1 0 2 4.7a7 7 0 0 0 12.3 6.8zm-13-7.2A8 8 0 1 1 15 12 8 8 0 0 1 1.1 4.3z"/>
    <linearGradient id="logo__M" x1="29.7%" x2="81.1%" y1="58.3%" y2="36.5%">
      <stop offset="0%" stop-color="#C3D535"/>
      <stop offset="100%" stop-color="#009C49"/>
    </linearGradient>
    <path id="logo__O" d="M12.4 8.8A6 6 0 1 0 1.2 5a6 6 0 0 0 11.2 3.8zm-12-4A6.7 6.7 0 1 1 13.2 9 6.7 6.7 0 0 1 .5 4.8z"/>
    <linearGradient id="logo__P" x1="47.3%" x2="62.6%" y1="71.2%" y2="26.7%">
      <stop offset="0%" stop-color="#D2DB2F"/>
      <stop offset="100%" stop-color="#009949"/>
    </linearGradient>
    <path id="logo__R" d="M13.1 10.5A6.5 6.5 0 1 0 1.7 4.3a6.5 6.5 0 0 0 11.4 6.2zm-12-6.6a7.3 7.3 0 1 1 12.7 7 7.3 7.3 0 0 1-12.7-7z"/>
    <linearGradient id="logo__S" x1="32.6%" x2="79.8%" y1="57.7%" y2="37.7%">
      <stop offset="0%" stop-color="#C3D535"/>
      <stop offset="100%" stop-color="#009C49"/>
    </linearGradient>
    <path id="logo__U" d="M11.9 9.6A5.9 5.9 0 1 0 1.5 4 5.9 5.9 0 0 0 12 9.6zm-11-6A6.6 6.6 0 1 1 12.5 10 6.6 6.6 0 0 1 .9 3.6z"/>
    <linearGradient id="logo__V" x1="35.1%" x2="78.1%" y1="55.8%" y2="37.6%">
      <stop offset="0%" stop-color="#C3D535"/>
      <stop offset="100%" stop-color="#009C49"/>
    </linearGradient>
    <path id="logo__X" d="M1.7 4a6 6 0 1 0 10.5 5.7A6 6 0 0 0 1.7 4zm11.1 6A6.7 6.7 0 1 1 1.1 3.7a6.7 6.7 0 0 1 11.7 6.5z"/>
    <linearGradient id="logo__Y" x1="44%" x2="66.9%" y1="67.6%" y2="26.2%">
      <stop offset="0%" stop-color="#D2DB2F"/>
      <stop offset="100%" stop-color="#009949"/>
    </linearGradient>
    <path id="logo__aa" d="M1.5 3.8A5.5 5.5 0 1 0 11.2 9a5.5 5.5 0 0 0-9.7-5.3zm10.3 5.6a6.2 6.2 0 1 1-10.9-6 6.2 6.2 0 0 1 10.9 6z"/>
    <linearGradient id="logo__ab" x1="43.7%" x2="64.9%" y1="66.5%" y2="28.3%">
      <stop offset="0%" stop-color="#009949"/>
      <stop offset="100%" stop-color="#D2DB2F"/>
    </linearGradient>
    <path id="logo__ad" d="M13.6 10.8A6.7 6.7 0 1 0 1.8 4.4a6.7 6.7 0 0 0 11.8 6.4zM1 3.9a7.5 7.5 0 1 1 13.2 7.3A7.5 7.5 0 0 1 1 4z"/>
    <linearGradient id="logo__ae" x1="28.5%" x2="81.7%" y1="48.3%" y2="46.5%">
      <stop offset="0%" stop-color="#A7CB3B"/>
      <stop offset="100%" stop-color="#009949"/>
    </linearGradient>
    <path id="logo__ag" d="M1.6 3.9a5.8 5.8 0 1 0 10.1 5.5 5.8 5.8 0 0 0-10-5.5zm10.7 5.8A6.5 6.5 0 1 1 1 3.5a6.5 6.5 0 0 1 11.3 6.2z"/>
    <path id="logo__ai" d="M11.2 9.2a5.6 5.6 0 1 0-9.8-5.4 5.6 5.6 0 0 0 9.8 5.4zM.8 3.5a6.3 6.3 0 1 1 11 6 6.3 6.3 0 0 1-11-6z"/>
    <path id="logo__ak" d="M11.6 9.4A5.7 5.7 0 1 0 1.5 3.9a5.7 5.7 0 0 0 10 5.5zM.9 3.5a6.4 6.4 0 1 1 11.3 6.2A6.4 6.4 0 0 1 .9 3.5z"/>
    <linearGradient id="logo__al" x1="45.3%" x2="66.7%" y1="67.1%" y2="26.9%">
      <stop offset="0%" stop-color="#D2DB2F"/>
      <stop offset="100%" stop-color="#009949"/>
    </linearGradient>
    <path id="logo__an" d="M11.1 9a5.4 5.4 0 1 0-9.5-5.2A5.4 5.4 0 0 0 11 9zM1 3.4a6.1 6.1 0 1 1 10.7 6A6.1 6.1 0 0 1 1 3.3z"/>
    <linearGradient id="logo__ao" x1="35.5%" x2="75.2%" y1="55.7%" y2="38.8%">
      <stop offset="0%" stop-color="#C3D535"/>
      <stop offset="100%" stop-color="#009C49"/>
    </linearGradient>
    <path id="logo__aq" d="M10 8.2a5 5 0 1 0-8.8-4.8A5 5 0 0 0 10 8.2zM.7 3a5.6 5.6 0 1 1 9.9 5.4A5.6 5.6 0 0 1 .7 3z"/>
    <path id="logo__as" d="M18.8 14.4a2.4 2.4 0 1 1-4.3-2.4 2.4 2.4 0 0 1 4.3 2.4zM21 1.8A14.2 14.2 0 1 0 7.4 26.7 14.2 14.2 0 0 0 21 1.8z"/>
    <path id="logo__au" d="M10.5 8.3a5.2 5.2 0 1 0-9-5 5.2 5.2 0 0 0 9 5zM1 3a5.8 5.8 0 1 1 10.2 5.6A5.8 5.8 0 0 1 .9 3z"/>
    <path id="logo__aw" d="M5.1.7A4.3 4.3 0 1 0 5 9.3 4.3 4.3 0 0 0 5 .7zm-.2 9A4.8 4.8 0 1 1 5.2.2a4.8 4.8 0 0 1-.3 9.7z"/>
    <linearGradient id="logo__ax" x1="70.9%" x2="44.4%" y1="57%" y2="35.5%">
      <stop offset="0%" stop-color="#D2DB2F"/>
      <stop offset="100%" stop-color="#009949"/>
    </linearGradient>
    <path id="logo__az" d="M4.9 9.3A4.3 4.3 0 1 0 5.1.7 4.3 4.3 0 0 0 5 9.3zM5.2.2a4.8 4.8 0 1 1-.3 9.6A4.8 4.8 0 0 1 5.2.2z"/>
    <linearGradient id="logo__aA" x1="74.7%" x2="40.7%" y1="47.9%" y2="46.7%">
      <stop offset="0%" stop-color="#009949"/>
      <stop offset="100%" stop-color="#D2DB2F"/>
    </linearGradient>
    <path id="logo__aC" d="M4.5 8.7A4 4 0 1 0 4.7.5a4 4 0 0 0-.2 8.2zM4.8 0a4.6 4.6 0 1 1-.3 9.2A4.6 4.6 0 0 1 4.8 0z"/>
    <linearGradient id="logo__aD" x1="69.7%" x2="45%" y1="57.3%" y2="36.6%">
      <stop offset="0%" stop-color="#009C49"/>
      <stop offset="100%" stop-color="#C3D535"/>
    </linearGradient>
    <path id="logo__aF" d="M4.3 8.2A3.7 3.7 0 1 0 4.5.7a3.7 3.7 0 0 0-.2 7.5zm.3-8a4.2 4.2 0 1 1-.3 8.5A4.2 4.2 0 0 1 4.6.3z"/>
    <path id="logo__aH" d="M4 7.8A3.6 3.6 0 1 0 4.2.6 3.6 3.6 0 0 0 4 7.8zM4.2.2a4 4 0 1 1-.2 8 4 4 0 0 1 .2-8z"/>
    <linearGradient id="logo__aI" x1="72.7%" x2="44.3%" y1="47.2%" y2="46.2%">
      <stop offset="0%" stop-color="#009949"/>
      <stop offset="100%" stop-color="#D2DB2F"/>
    </linearGradient>
    <path id="logo__aK" d="M18.8 14.4a2.4 2.4 0 1 1-4.3-2.4 2.4 2.4 0 0 1 4.3 2.4zM21 1.8A14.2 14.2 0 1 0 7.4 26.7 14.2 14.2 0 0 0 21 1.8z"/>
    <path id="logo__aM" d="M4 .6a3.4 3.4 0 1 0-.2 6.8A3.4 3.4 0 0 0 4 .6zm-.2 7.3A3.9 3.9 0 1 1 4.1 0 3.9 3.9 0 0 1 3.8 8z"/>
    <linearGradient id="logo__aN" x1="71.5%" x2="44.2%" y1="46.3%" y2="45.3%">
      <stop offset="0%" stop-color="#D2DB2F"/>
      <stop offset="100%" stop-color="#009949"/>
    </linearGradient>
    <path id="logo__aP" d="M5.2 1A2.5 2.5 0 1 1 .4.3a2.5 2.5 0 0 0 4.5 1.6l.3-.9z"/>
    <linearGradient id="logo__aQ" x1="66.3%" x2="51%" y1="51.4%" y2="42.9%">
      <stop offset="0%" stop-color="#009949"/>
      <stop offset="100%" stop-color="#D2DB2F"/>
    </linearGradient>
    <path id="logo__aS" d="M1.9 5.6A2.7 2.7 0 1 0 4.5.8a2.7 2.7 0 0 0-2.6 4.8zm2.8-5a3 3 0 1 1-3 5.3 3 3 0 0 1 3-5.3z"/>
    <linearGradient id="logo__aT" x1="62.4%" x2="54%" y1="56.1%" y2="36.2%">
      <stop offset="0%" stop-color="#009C49"/>
      <stop offset="100%" stop-color="#C3D535"/>
    </linearGradient>
    <path id="logo__aV" d="M4 5.3c.5-.2 1-.6 1.2-1.1A2.4 2.4 0 0 0 3.3.6a2.5 2.5 0 0 0-1.6 4.6c.7.5 1.6.4 2.3 0zM4.2.6a2.8 2.8 0 1 1-2.7 5 2.8 2.8 0 0 1 2.7-5z"/>
    <linearGradient id="logo__aW" x1="62%" x2="54.3%" y1="55.6%" y2="37.3%">
      <stop offset="0%" stop-color="#009C49"/>
      <stop offset="100%" stop-color="#C3D535"/>
    </linearGradient>
    <path id="logo__aY" d="M18.8 14.4a2.4 2.4 0 1 1-4.3-2.4 2.4 2.4 0 0 1 4.3 2.4zM21 1.8A14.2 14.2 0 1 0 7.4 26.7 14.2 14.2 0 0 0 21 1.8z"/>
    <path id="logo__ba" d="M4.2 5.3a2.4 2.4 0 0 0 1.6-2.6 2.6 2.6 0 1 0-1.6 2.6zm.4-5a3 3 0 1 1-2.8 5.2A3 3 0 0 1 4.6.4z"/>
    <linearGradient id="logo__bb" x1="57.9%" x2="58.6%" y1="56.3%" y2="35.8%">
      <stop offset="0%" stop-color="#009949"/>
      <stop offset="100%" stop-color="#A6CA3B"/>
    </linearGradient>
    <path id="logo__bd" d="M4.3 8.2A3.7 3.7 0 1 0 4.5.7a3.7 3.7 0 0 0-.2 7.5zm.2-8a4.2 4.2 0 1 1-.3 8.5A4.2 4.2 0 0 1 4.5.3z"/>
    <linearGradient id="logo__be" x1="68.7%" x2="46.1%" y1="57%" y2="37.9%">
      <stop offset="0%" stop-color="#009C49"/>
      <stop offset="100%" stop-color="#C3D535"/>
    </linearGradient>
    <path id="logo__bg" d="M18.8 14.4a2.4 2.4 0 1 1-4.3-2.4 2.4 2.4 0 0 1 4.3 2.4zM21 1.8A14.2 14.2 0 1 0 7.4 26.7 14.2 14.2 0 0 0 21 1.8z"/>
    <path id="logo__bi" d="M4.5 8.4A3.9 3.9 0 1 0 4.7.7a3.9 3.9 0 0 0-.2 7.7zM4.7.2A4.3 4.3 0 1 1 4.5 9 4.3 4.3 0 0 1 4.7.2z"/>
    <path id="logo__bk" d="M18.8 14.4a2.4 2.4 0 1 1-4.3-2.4 2.4 2.4 0 0 1 4.3 2.4zM21 1.8A14.2 14.2 0 1 0 7.4 26.7 14.2 14.2 0 0 0 21 1.8z"/>
    <path id="logo__bm" d="M5.6 1.1a3.5 3.5 0 1 0-3.3 6 3.5 3.5 0 0 0 3.3-6zM2.1 7.5A3.9 3.9 0 1 1 5.8.7a3.9 3.9 0 0 1-3.7 6.8z"/>
    <linearGradient id="logo__bn" x1="66.8%" x2="49.2%" y1="56.8%" y2="35.8%">
      <stop offset="0%" stop-color="#A6CA3B"/>
      <stop offset="100%" stop-color="#009949"/>
    </linearGradient>
    <path id="logo__bp" d="M2.5 7.1a3.4 3.4 0 1 0 3.3-6 3.4 3.4 0 0 0-3.3 6zM6 .7a3.9 3.9 0 1 1-3.7 6.8A3.9 3.9 0 0 1 6 .7z"/>
    <linearGradient id="logo__bq" x1="69.4%" x2="45.5%" y1="53.8%" y2="40.5%">
      <stop offset="0%" stop-color="#009949"/>
      <stop offset="100%" stop-color="#D2DB2F"/>
    </linearGradient>
    <path id="logo__bs" d="M5.7 3.4a2.4 2.4 0 0 0-3-3 2.6 2.6 0 0 0-.9 5 2.6 2.6 0 0 0 3.9-2zM4.5.4a3 3 0 1 1-2.8 5.2A3 3 0 0 1 4.5.4z"/>
    <linearGradient id="logo__bt" x1="67%" x2="48.7%" y1="52.4%" y2="42.2%">
      <stop offset="0%" stop-color="#009949"/>
      <stop offset="100%" stop-color="#D2DB2F"/>
    </linearGradient>
    <path id="logo__bv" d="M2.2 6.6A3.3 3.3 0 1 0 5.3.8a3.3 3.3 0 0 0-3 5.8zM5.5.5A3.7 3.7 0 1 1 2 6.9 3.7 3.7 0 0 1 5.5.5z"/>
    <linearGradient id="logo__bw" x1="62.4%" x2="52.3%" y1="58.7%" y2="34.8%">
      <stop offset="0%" stop-color="#009C49"/>
      <stop offset="100%" stop-color="#C3D535"/>
    </linearGradient>
    <path id="logo__by" d="M2 6.1A3 3 0 1 0 5 1 3 3 0 0 0 2 6zM5 .6A3.4 3.4 0 1 1 2 6.5 3.4 3.4 0 0 1 5 .5z"/>
    <linearGradient id="logo__bz" x1="61.9%" x2="52.6%" y1="58%" y2="36.2%">
      <stop offset="0%" stop-color="#009C49"/>
      <stop offset="100%" stop-color="#C3D535"/>
    </linearGradient>
    <path id="logo__bB" d="M2 6A3 3 0 1 0 5 .7 3 3 0 0 0 2 6zM5 .4a3.4 3.4 0 1 1-3.2 6A3.4 3.4 0 0 1 5 .3z"/>
    <linearGradient id="logo__bC" x1="65.7%" x2="50.5%" y1="56.7%" y2="38.5%">
      <stop offset="0%" stop-color="#009949"/>
      <stop offset="100%" stop-color="#A4CA3B"/>
    </linearGradient>
    <path id="logo__bE" d="M18.8 14.4a2.4 2.4 0 1 1-4.3-2.4 2.4 2.4 0 0 1 4.3 2.4zM21 1.8A14.2 14.2 0 1 0 7.4 26.7 14.2 14.2 0 0 0 21 1.8z"/>
    <path id="logo__bG" d="M2 6.4A3.1 3.1 0 0 0 5 .9a3.1 3.1 0 0 0-3 5.5zM5.2.6a3.5 3.5 0 1 1-3.4 6.1A3.5 3.5 0 0 1 5.2.6z"/>
    <linearGradient id="logo__bH" x1="56.9%" x2="57.8%" y1="58.9%" y2="34.3%">
      <stop offset="0%" stop-color="#009949"/>
      <stop offset="100%" stop-color="#A7CB3B"/>
    </linearGradient>
    <path id="logo__bJ" d="M14.3 11.5A7.1 7.1 0 1 0 1.8 4.6a7.1 7.1 0 0 0 12.5 6.9zM1.1 4.2A8 8 0 1 1 15 12 8 8 0 0 1 1 4.2z"/>
    <linearGradient id="logo__bK" x1="39.8%" x2="67.1%" y1="74.8%" y2="25.4%">
      <stop offset="0%" stop-color="#CDD931"/>
      <stop offset="100%" stop-color="#009949"/>
    </linearGradient>
    <path id="logo__bM" d="M2.5 6a9.3 9.3 0 1 0 16.3 9A9.3 9.3 0 0 0 2.5 6zm17.3 9.5a10.4 10.4 0 1 1-18.3-10 10.4 10.4 0 0 1 18.3 10z"/>
    <path id="logo__bO" d="M18.6 15A9.3 9.3 0 1 0 2.3 6.1a9.3 9.3 0 0 0 16.3 9zM1.4 5.6a10.4 10.4 0 1 1 18.2 10 10.4 10.4 0 0 1-18.2-10z"/>
    <linearGradient id="logo__bP" x1="35.7%" x2="70.2%" y1="83.5%" y2="18.7%">
      <stop offset="0%" stop-color="#D2DB2F"/>
      <stop offset="100%" stop-color="#009949"/>
    </linearGradient>
    <path id="logo__bR" d="M17.6 14.3A8.8 8.8 0 1 0 2.2 6a8.8 8.8 0 0 0 15.4 8.4zm-16.3-9A9.9 9.9 0 1 1 18.5 15 9.9 9.9 0 0 1 1.3 5.4z"/>
    <linearGradient id="logo__bS" x1="19.9%" x2="83.9%" y1="65%" y2="37.9%">
      <stop offset="0%" stop-color="#C3D535"/>
      <stop offset="100%" stop-color="#009C49"/>
    </linearGradient>
    <path id="logo__bU" d="M16.1 13A8 8 0 1 0 2 5.1 8 8 0 0 0 16 13zm-15-8.3A9 9 0 1 1 17 13.5 9 9 0 0 1 1 4.7z"/>
    <linearGradient id="logo__bV" x1="23.5%" x2="82.3%" y1="64.2%" y2="39.3%">
      <stop offset="0%" stop-color="#C3D535"/>
      <stop offset="100%" stop-color="#009C49"/>
    </linearGradient>
    <path id="logo__bX" d="M16.2 13.1A8 8 0 1 0 2 5.4a8 8 0 0 0 14.2 7.7zM1.2 5a9 9 0 1 1 15.9 8.7A9 9 0 0 1 1.2 5z"/>
    <path id="logo__bZ" d="M18.8 14.4a2.4 2.4 0 1 1-4.3-2.4 2.4 2.4 0 0 1 4.3 2.4zM21 1.8A14.2 14.2 0 1 0 7.4 26.7 14.2 14.2 0 0 0 21 1.8z"/>
    <path id="logo__cb" d="M16.8 13.6a8.4 8.4 0 1 0-14.6-8 8.4 8.4 0 0 0 14.6 8zM1.3 5a9.4 9.4 0 1 1 16.4 9A9.4 9.4 0 0 1 1.3 5z"/>
    <path id="logo__cd" d="M2.3 9a12 12 0 1 0 22.3 9A12 12 0 0 0 2.3 9zM26 18.6a13.4 13.4 0 1 1-25-10 13.4 13.4 0 0 1 25 10z"/>
    <linearGradient id="logo__ce" x1="8%" x2="94.8%" y1="68.7%" y2="30.3%">
      <stop offset="0%" stop-color="#009C49"/>
      <stop offset="100%" stop-color="#C3D535"/>
    </linearGradient>
    <path id="logo__cg" d="M2.9 7.3a11 11 0 1 0 19.3 10.5A11 11 0 0 0 2.9 7.3zm20.4 11.2A12.3 12.3 0 1 1 1.7 6.6a12.3 12.3 0 0 1 21.6 11.9z"/>
    <linearGradient id="logo__ch" x1="9.7%" x2="90.4%" y1="65.4%" y2="32.7%">
      <stop offset="0%" stop-color="#009C49"/>
      <stop offset="100%" stop-color="#C3D535"/>
    </linearGradient>
    <path id="logo__cj" d="M3 7a11 11 0 1 0 19.2 10.6A11 11 0 0 0 3 7zm20.4 11.2A12.3 12.3 0 1 1 1.7 6.4a12.3 12.3 0 0 1 21.7 11.8z"/>
    <path id="logo__cl" d="M3.7 5.3a10.2 10.2 0 1 0 16.1 12.5A10.2 10.2 0 0 0 3.7 5.3zm17 13.3a11.5 11.5 0 1 1-18-14.1 11.5 11.5 0 0 1 18 14z"/>
    <path id="logo__cn" d="M3 7.5a11.4 11.4 0 1 0 20 11 11.4 11.4 0 0 0-20-11zm21.2 11.6A12.8 12.8 0 1 1 1.8 6.8 12.8 12.8 0 0 1 24.2 19z"/>
    <path id="logo__cp" d="M18.8 14.4a2.4 2.4 0 1 1-4.3-2.4 2.4 2.4 0 0 1 4.3 2.4zM21 1.8A14.2 14.2 0 1 0 7.4 26.7 14.2 14.2 0 0 0 21 1.8z"/>
  </defs>

  <g transform="translate(.2, 0)">
  <g class="logo-swirl" fill="none" fill-rule="evenodd" style="opacity: 0;">
    <g transform="translate(0 10.4)">
      <mask id="logo__c" fill="#fff">
        <use xlink:href="#logo__a"/>
      </mask>
      <path fill="url(#logo__b)" fill-rule="nonzero" d="M18.8 14.4a2.4 2.4 0 1 1-4.3-2.4 2.4 2.4 0 0 1 4.3 2.4zM21 1.8A14.2 14.2 0 1 0 7.4 26.7 14.2 14.2 0 0 0 21 1.8z" mask="url(#logo__c)"/>
    </g>
    <g transform="translate(10 17.5)">
      <mask id="logo__f" fill="#fff">
        <use xlink:href="#logo__d"/>
      </mask>
      <path fill="url(#logo__e)" fill-rule="nonzero" d="M8.9 7.3A2.4 2.4 0 1 1 4.6 5a2.4 2.4 0 0 1 4.3 2.3zM11-5.2A14.2 14.2 0 1 0-2.5 19.6 14.2 14.2 0 0 0 11-5.2z" mask="url(#logo__f)"/>
    </g>
    <g transform="translate(10.2 17.2)">
      <mask id="logo__h" fill="#fff">
        <use xlink:href="#logo__g"/>
      </mask>
      <path d="M8.6 7.6a2.4 2.4 0 1 1-4.3-2.4 2.4 2.4 0 0 1 4.3 2.4zM10.8-5A14.2 14.2 0 1 0-2.8 20 14.2 14.2 0 0 0 10.8-5z" mask="url(#logo__h)"/>
    </g>
    <g transform="translate(0 10.4)">
      <mask id="logo__j" fill="#fff">
        <use xlink:href="#logo__i"/>
      </mask>
      <path fill="#D2DB2F" fill-rule="nonzero" d="M20.6 15.8A5 5 0 1 0 12 11a5 5 0 0 0 8.7 4.8zm-9.2-5.1a5.6 5.6 0 1 1 9.8 5.4 5.6 5.6 0 0 1-9.8-5.4z" mask="url(#logo__j)"/>
    </g>
    <g transform="translate(10.2 18)">
      <mask id="logo__m" fill="#fff">
        <use xlink:href="#logo__k"/>
      </mask>
      <path fill="url(#logo__l)" fill-rule="nonzero" d="M8.6 6.7a2.4 2.4 0 1 1-4.3-2.3 2.4 2.4 0 0 1 4.3 2.3zm2.2-12.5A14.2 14.2 0 1 0-2.8 19 14.2 14.2 0 0 0 10.8-6z" mask="url(#logo__m)"/>
    </g>
    <g transform="translate(10.5 17.8)">
      <mask id="logo__o" fill="#fff">
        <use xlink:href="#logo__n"/>
      </mask>
      <path d="M8.3 7A2.4 2.4 0 1 1 4 4.7 2.4 2.4 0 0 1 8.3 7zm2.2-12.5A14.2 14.2 0 1 0-3.1 19.3 14.2 14.2 0 0 0 10.5-5.5z" mask="url(#logo__o)"/>
    </g>
    <g transform="translate(10.8 18)">
      <mask id="logo__r" fill="#fff">
        <use xlink:href="#logo__p"/>
      </mask>
      <path fill="url(#logo__q)" fill-rule="nonzero" d="M8 6.7a2.4 2.4 0 1 1-4.3-2.3A2.4 2.4 0 0 1 8 6.7zm2.2-12.5A14.2 14.2 0 1 0-3.4 19 14.2 14.2 0 0 0 10.2-6z" mask="url(#logo__r)"/>
    </g>
    <g transform="translate(10.5 18.3)">
      <mask id="logo__u" fill="#fff">
        <use xlink:href="#logo__s"/>
      </mask>
      <path fill="url(#logo__t)" fill-rule="nonzero" d="M8.3 6.5A2.4 2.4 0 1 1 4 4a2.4 2.4 0 0 1 4.3 2.4zm2.2-12.6A14.2 14.2 0 1 0-3.1 18.8 14.2 14.2 0 0 0 10.5-6.1z" mask="url(#logo__u)"/>
    </g>
    <g transform="translate(10.8 18)">
      <mask id="logo__x" fill="#fff">
        <use xlink:href="#logo__v"/>
      </mask>
      <path fill="url(#logo__w)" fill-rule="nonzero" d="M8 6.7a2.4 2.4 0 1 1-4.3-2.3A2.4 2.4 0 0 1 8 6.7zm2.2-12.5A14.2 14.2 0 1 0-3.4 19 14.2 14.2 0 0 0 10.2-6z" mask="url(#logo__x)"/>
    </g>
    <g transform="translate(10.8 18.3)">
      <mask id="logo__A" fill="#fff">
        <use xlink:href="#logo__y"/>
      </mask>
      <path fill="url(#logo__z)" fill-rule="nonzero" d="M8 6.5A2.4 2.4 0 1 1 3.7 4 2.4 2.4 0 0 1 8 6.5zm2.2-12.6A14.2 14.2 0 1 0-3.4 18.8 14.2 14.2 0 0 0 10.2-6.1z" mask="url(#logo__A)"/>
    </g>
    <g transform="translate(10.8 18.6)">
      <mask id="logo__D" fill="#fff">
        <use xlink:href="#logo__B"/>
      </mask>
      <path fill="url(#logo__C)" fill-rule="nonzero" d="M8 6.2a2.4 2.4 0 1 1-4.3-2.4A2.4 2.4 0 0 1 8 6.2zm2.2-12.6A14.2 14.2 0 1 0-3.4 18.5 14.2 14.2 0 0 0 10.2-6.4z" mask="url(#logo__D)"/>
    </g>
    <g transform="translate(0 10.4)">
      <mask id="logo__F" fill="#fff">
        <use xlink:href="#logo__E"/>
      </mask>
      <path fill="#D2DB2F" fill-rule="nonzero" d="M20 15.7a4.6 4.6 0 1 0-8.1-4.4 4.6 4.6 0 0 0 8 4.4zM11.3 11a5.2 5.2 0 1 1 9 5 5.2 5.2 0 0 1-9-5z" mask="url(#logo__F)"/>
    </g>
    <g transform="translate(0 10.4)">
      <mask id="logo__H" fill="#fff">
        <use xlink:href="#logo__G"/>
      </mask>
      <path fill="#D2DB2F" fill-rule="nonzero" d="M21.2 16.4a6 6 0 1 0-10.5-5.7 6 6 0 0 0 10.5 5.7zm-11.1-6a6.7 6.7 0 1 1 11.8 6.4A6.7 6.7 0 0 1 10 10.3z" mask="url(#logo__H)"/>
    </g>
    <g transform="translate(7 15.2)">
      <mask id="logo__K" fill="#fff">
        <use xlink:href="#logo__I"/>
      </mask>
      <path fill="url(#logo__J)" fill-rule="nonzero" d="M11.7 9.6a2.4 2.4 0 1 1-4.3-2.4 2.4 2.4 0 0 1 4.3 2.4zM14-3A14.2 14.2 0 1 0 .3 22 14.2 14.2 0 0 0 13.9-3z" mask="url(#logo__K)"/>
    </g>
    <g transform="translate(7.6 15.8)">
      <mask id="logo__N" fill="#fff">
        <use xlink:href="#logo__L"/>
      </mask>
      <path fill="url(#logo__M)" fill-rule="nonzero" d="M11.2 9a2.4 2.4 0 1 1-4.3-2.3A2.4 2.4 0 0 1 11.2 9zm2.1-12.6a14.2 14.2 0 1 0-13.6 25 14.2 14.2 0 0 0 13.6-25z" mask="url(#logo__N)"/>
    </g>
    <g transform="translate(8.8 17.5)">
      <mask id="logo__Q" fill="#fff">
        <use xlink:href="#logo__O"/>
      </mask>
      <path fill="url(#logo__P)" fill-rule="nonzero" d="M10 7.3A2.4 2.4 0 1 1 5.7 5 2.4 2.4 0 0 1 10 7.3zm2.2-12.5A14.2 14.2 0 1 0-1.4 19.6 14.2 14.2 0 0 0 12.2-5.2z" mask="url(#logo__Q)"/>
    </g>
    <g transform="translate(8.5 16.6)">
      <mask id="logo__T" fill="#fff">
        <use xlink:href="#logo__R"/>
      </mask>
      <path fill="url(#logo__S)" fill-rule="nonzero" d="M10.3 8.2A2.4 2.4 0 1 1 6 5.8a2.4 2.4 0 0 1 4.3 2.4zm2.2-12.6A14.2 14.2 0 1 0-1.1 20.5 14.2 14.2 0 0 0 12.5-4.4z" mask="url(#logo__T)"/>
    </g>
    <g transform="translate(9.3 17)">
      <mask id="logo__W" fill="#fff">
        <use xlink:href="#logo__U"/>
      </mask>
      <path fill="url(#logo__V)" fill-rule="nonzero" d="M9.5 7.9a2.4 2.4 0 1 1-4.3-2.4A2.4 2.4 0 0 1 9.5 8zm2.1-12.6A14.2 14.2 0 1 0-2 20.2 14.2 14.2 0 0 0 11.6-4.7z" mask="url(#logo__W)"/>
    </g>
    <g transform="translate(8.8 17)">
      <mask id="logo__Z" fill="#fff">
        <use xlink:href="#logo__X"/>
      </mask>
      <path fill="url(#logo__Y)" fill-rule="nonzero" d="M10 7.9a2.4 2.4 0 1 1-4.3-2.4A2.4 2.4 0 0 1 10 8zm2.2-12.6A14.2 14.2 0 1 0-1.4 20.2 14.2 14.2 0 0 0 12.2-4.7z" mask="url(#logo__Z)"/>
    </g>
    <g transform="translate(9 17.5)">
      <mask id="logo__ac" fill="#fff">
        <use xlink:href="#logo__aa"/>
      </mask>
      <path fill="url(#logo__ab)" fill-rule="nonzero" d="M9.7 7.3A2.4 2.4 0 1 1 5.4 5a2.4 2.4 0 0 1 4.3 2.3zM12-5.2A14.2 14.2 0 1 0-1.7 19.6 14.2 14.2 0 0 0 12-5.2z" mask="url(#logo__ac)"/>
    </g>
    <g transform="translate(8 16.3)">
      <mask id="logo__af" fill="#fff">
        <use xlink:href="#logo__ad"/>
      </mask>
      <path fill="url(#logo__ae)" fill-rule="nonzero" d="M10.9 8.4a2.4 2.4 0 1 1-4.3-2.3 2.4 2.4 0 0 1 4.3 2.3zM13-4A14.2 14.2 0 1 0-.5 20.8 14.2 14.2 0 0 0 13-4.2z" mask="url(#logo__af)"/>
    </g>
    <g transform="translate(8.8 17)">
      <mask id="logo__ah" fill="#fff">
        <use xlink:href="#logo__ag"/>
      </mask>
      <path d="M10 7.9a2.4 2.4 0 1 1-4.3-2.4A2.4 2.4 0 0 1 10 8zm2.2-12.6A14.2 14.2 0 1 0-1.4 20.2 14.2 14.2 0 0 0 12.2-4.7z" mask="url(#logo__ah)"/>
    </g>
    <g transform="translate(9.6 17.2)">
      <mask id="logo__aj" fill="#fff">
        <use xlink:href="#logo__ai"/>
      </mask>
      <path d="M9.2 7.6a2.4 2.4 0 1 1-4.3-2.4 2.4 2.4 0 0 1 4.3 2.4zM11.3-5A14.2 14.2 0 1 0-2.2 20 14.2 14.2 0 0 0 11.3-5z" mask="url(#logo__aj)"/>
    </g>
    <g transform="translate(9.3 17.2)">
      <mask id="logo__am" fill="#fff">
        <use xlink:href="#logo__ak"/>
      </mask>
      <path fill="url(#logo__al)" fill-rule="nonzero" d="M9.5 7.6a2.4 2.4 0 1 1-4.3-2.4 2.4 2.4 0 0 1 4.3 2.4zM11.6-5A14.2 14.2 0 1 0-2 20 14.2 14.2 0 0 0 11.6-5z" mask="url(#logo__am)"/>
    </g>
    <g transform="translate(9.3 17.5)">
      <mask id="logo__ap" fill="#fff">
        <use xlink:href="#logo__an"/>
      </mask>
      <path fill="url(#logo__ao)" fill-rule="nonzero" d="M9.5 7.3A2.4 2.4 0 1 1 5.2 5a2.4 2.4 0 0 1 4.3 2.3zm2.1-12.5A14.2 14.2 0 1 0-2 19.6 14.2 14.2 0 0 0 11.6-5.2z" mask="url(#logo__ap)"/>
    </g>
    <g transform="translate(10.5 17.8)">
      <mask id="logo__ar" fill="#fff">
        <use xlink:href="#logo__aq"/>
      </mask>
      <path d="M8.3 7A2.4 2.4 0 1 1 4 4.7 2.4 2.4 0 0 1 8.3 7zm2.2-12.5A14.2 14.2 0 1 0-3.1 19.3 14.2 14.2 0 0 0 10.5-5.5z" mask="url(#logo__ar)"/>
    </g>
    <g transform="translate(0 10.4)">
      <mask id="logo__at" fill="#fff">
        <use xlink:href="#logo__as"/>
      </mask>
      <path fill="#D2DB2F" fill-rule="nonzero" d="M20 15.7a4.6 4.6 0 1 0-8.1-4.4 4.6 4.6 0 0 0 8 4.4zM11.3 11a5.2 5.2 0 1 1 9 5 5.2 5.2 0 0 1-9-5z" mask="url(#logo__at)"/>
    </g>
    <g transform="translate(9.6 18)">
      <mask id="logo__av" fill="#fff">
        <use xlink:href="#logo__au"/>
      </mask>
      <path d="M9.2 6.7a2.4 2.4 0 1 1-4.3-2.3 2.4 2.4 0 0 1 4.3 2.3zm2.1-12.5A14.2 14.2 0 1 0-2.2 19 14.2 14.2 0 0 0 11.3-6z" mask="url(#logo__av)"/>
    </g>
    <g transform="translate(11.3 18.6)">
      <mask id="logo__ay" fill="#fff">
        <use xlink:href="#logo__aw"/>
      </mask>
      <path fill="url(#logo__ax)" fill-rule="nonzero" d="M7.5 6.2a2.4 2.4 0 1 1-4.3-2.4 2.4 2.4 0 0 1 4.3 2.4zM9.6-6.4A14.2 14.2 0 1 0-3.9 18.5 14.2 14.2 0 0 0 9.6-6.4z" mask="url(#logo__ay)"/>
    </g>
    <g transform="translate(11.3 18.9)">
      <mask id="logo__aB" fill="#fff">
        <use xlink:href="#logo__az"/>
      </mask>
      <path fill="url(#logo__aA)" fill-rule="nonzero" d="M7.5 5.9a2.4 2.4 0 1 1-4.3-2.3 2.4 2.4 0 0 1 4.3 2.3zM9.6-6.7a14.2 14.2 0 1 0-13.5 25 14.2 14.2 0 0 0 13.5-25z" mask="url(#logo__aB)"/>
    </g>
    <g transform="translate(11.6 19.2)">
      <mask id="logo__aE" fill="#fff">
        <use xlink:href="#logo__aC"/>
      </mask>
      <path fill="url(#logo__aD)" fill-rule="nonzero" d="M7.2 5.6a2.4 2.4 0 1 1-4.3-2.3 2.4 2.4 0 0 1 4.3 2.3zM9.4-6.9A14.2 14.2 0 1 0-4.2 17.9 14.2 14.2 0 0 0 9.4-6.9z" mask="url(#logo__aE)"/>
    </g>
    <g transform="translate(12.2 19.5)">
      <mask id="logo__aG" fill="#fff">
        <use xlink:href="#logo__aF"/>
      </mask>
      <path d="M6.6 5.3A2.4 2.4 0 1 1 2.3 3a2.4 2.4 0 0 1 4.3 2.3zM8.8-7.2A14.2 14.2 0 1 0-4.8 17.6 14.2 14.2 0 0 0 8.8-7.2z" mask="url(#logo__aG)"/>
    </g>
    <g transform="translate(12.5 19.5)">
      <mask id="logo__aJ" fill="#fff">
        <use xlink:href="#logo__aH"/>
      </mask>
      <path fill="url(#logo__aI)" fill-rule="nonzero" d="M6.3 5.3A2.4 2.4 0 1 1 2 3a2.4 2.4 0 0 1 4.3 2.3zM8.5-7.2A14.2 14.2 0 1 0-5 17.6 14.2 14.2 0 0 0 8.5-7.2z" mask="url(#logo__aJ)"/>
    </g>
    <g transform="translate(0 10.4)">
      <mask id="logo__aL" fill="#fff">
        <use xlink:href="#logo__aK"/>
      </mask>
      <path fill="#D2DB2F" fill-rule="nonzero" d="M19.6 15.2a3.8 3.8 0 1 0-6.8-3.7 3.8 3.8 0 0 0 6.8 3.7zm-7.2-4a4.3 4.3 0 1 1 7.6 4.2 4.3 4.3 0 0 1-7.6-4.2z" mask="url(#logo__aL)"/>
    </g>
    <g transform="translate(12.5 19.5)">
      <mask id="logo__aO" fill="#fff">
        <use xlink:href="#logo__aM"/>
      </mask>
      <path fill="url(#logo__aN)" fill-rule="nonzero" d="M6.3 5.3A2.4 2.4 0 1 1 2 3a2.4 2.4 0 0 1 4.3 2.3zM8.5-7.2A14.2 14.2 0 1 0-5 17.6 14.2 14.2 0 0 0 8.5-7.2z" mask="url(#logo__aO)"/>
    </g>
    <g transform="translate(13.9 22.9)">
      <mask id="logo__aR" fill="#fff">
        <use xlink:href="#logo__aP"/>
      </mask>
      <path fill="url(#logo__aQ)" fill-rule="nonzero" d="M5 2A2.4 2.4 0 1 1 .5-.5 2.4 2.4 0 0 1 5 1.9zM7-10.7A14.2 14.2 0 1 0-6.5 14.2 14.2 14.2 0 0 0 7.1-10.6z" mask="url(#logo__aR)"/>
    </g>
    <g transform="translate(13.3 20.3)">
      <mask id="logo__aU" fill="#fff">
        <use xlink:href="#logo__aS"/>
      </mask>
      <path fill="url(#logo__aT)" fill-rule="nonzero" d="M5.5 4.5A2.4 2.4 0 1 1 1.2 2a2.4 2.4 0 0 1 4.3 2.4zM7.7-8.1A14.2 14.2 0 1 0-6 16.8 14.2 14.2 0 0 0 7.7-8.1z" mask="url(#logo__aU)"/>
    </g>
    <g transform="translate(13.6 20.6)">
      <mask id="logo__aX" fill="#fff">
        <use xlink:href="#logo__aV"/>
      </mask>
      <path fill="url(#logo__aW)" fill-rule="nonzero" d="M5.2 4.2A2.4 2.4 0 1 1 1 1.9a2.4 2.4 0 0 1 4.3 2.3zM7.4-8.4a14.2 14.2 0 1 0-13.6 25 14.2 14.2 0 0 0 13.6-25z" mask="url(#logo__aX)"/>
    </g>
    <g transform="translate(0 10.4)">
      <mask id="logo__aZ" fill="#fff">
        <use xlink:href="#logo__aY"/>
      </mask>
      <path fill="#CDD931" fill-rule="nonzero" d="M15.5 15.6a2.4 2.4 0 1 0 2.4-4.3 2.4 2.4 0 0 0-2.4 4.3zm2.5-4.7a2.8 2.8 0 1 1-2.7 5 2.8 2.8 0 0 1 2.7-5z" mask="url(#logo__aZ)"/>
    </g>
    <g transform="translate(13.3 20.6)">
      <mask id="logo__bc" fill="#fff">
        <use xlink:href="#logo__ba"/>
      </mask>
      <path fill="url(#logo__bb)" fill-rule="nonzero" d="M5.5 4.2a2.4 2.4 0 1 1-4.3-2.3 2.4 2.4 0 0 1 4.3 2.3zM7.7-8.4A14.2 14.2 0 1 0-6 16.6a14.2 14.2 0 0 0 13.6-25z" mask="url(#logo__bc)"/>
    </g>
    <g transform="translate(11.9 19.5)">
      <mask id="logo__bf" fill="#fff">
        <use xlink:href="#logo__bd"/>
      </mask>
      <path fill="url(#logo__be)" fill-rule="nonzero" d="M7 5.3A2.4 2.4 0 1 1 2.5 3 2.4 2.4 0 0 1 7 5.3zM9-7.2A14.2 14.2 0 1 0-4.4 17.6 14.2 14.2 0 0 0 9-7.2z" mask="url(#logo__bf)"/>
    </g>
    <g transform="translate(0 10.4)">
      <mask id="logo__bh" fill="#fff">
        <use xlink:href="#logo__bg"/>
      </mask>
      <path fill="#D2DB2F" fill-rule="nonzero" d="M16.2 17a3.4 3.4 0 1 0 .2-6.9 3.4 3.4 0 0 0-.2 6.9zm.2-7.3a3.9 3.9 0 1 1-.2 7.7 3.9 3.9 0 0 1 .2-7.7z" mask="url(#logo__bh)"/>
    </g>
    <g transform="translate(11.6 19.2)">
      <mask id="logo__bj" fill="#fff">
        <use xlink:href="#logo__bi"/>
      </mask>
      <path d="M7.2 5.6a2.4 2.4 0 1 1-4.3-2.3 2.4 2.4 0 0 1 4.3 2.3zM9.4-6.9A14.2 14.2 0 1 0-4.2 17.9 14.2 14.2 0 0 0 9.4-6.9z" mask="url(#logo__bj)"/>
    </g>
    <g transform="translate(0 10.4)">
      <mask id="logo__bl" fill="#fff">
        <use xlink:href="#logo__bk"/>
      </mask>
      <path fill="#009949" fill-rule="nonzero" d="M17.8 10.2a3.3 3.3 0 1 0-3.2 5.9 3.3 3.3 0 0 0 3.2-5.9zm-3.3 6.2A3.7 3.7 0 1 1 18 10a3.7 3.7 0 0 1-3.5 6.5z" mask="url(#logo__bl)"/>
    </g>
    <g transform="translate(12.5 19.5)">
      <mask id="logo__bo" fill="#fff">
        <use xlink:href="#logo__bm"/>
      </mask>
      <path fill="url(#logo__bn)" fill-rule="nonzero" d="M6.3 5.3A2.4 2.4 0 1 1 2 3a2.4 2.4 0 0 1 4.3 2.3zM8.5-7.2A14.2 14.2 0 1 0-5 17.6 14.2 14.2 0 0 0 8.5-7.2z" mask="url(#logo__bo)"/>
    </g>
    <g transform="translate(12.2 19.7)">
      <mask id="logo__br" fill="#fff">
        <use xlink:href="#logo__bp"/>
      </mask>
      <path fill="url(#logo__bq)" fill-rule="nonzero" d="M6.6 5a2.4 2.4 0 1 1-4.3-2.3A2.4 2.4 0 0 1 6.6 5zM8.8-7.5A14.2 14.2 0 1 0-4.8 17.4a14.2 14.2 0 0 0 13.6-25z" mask="url(#logo__br)"/>
    </g>
    <g transform="translate(13.3 20.9)">
      <mask id="logo__bu" fill="#fff">
        <use xlink:href="#logo__bs"/>
      </mask>
      <path fill="url(#logo__bt)" fill-rule="nonzero" d="M5.5 4a2.4 2.4 0 1 1-4.3-2.4 2.4 2.4 0 0 1 4.3 2.3zM7.7-8.7A14.2 14.2 0 1 0-6 16.2 14.2 14.2 0 0 0 7.7-8.6z" mask="url(#logo__bu)"/>
    </g>
    <g transform="translate(12.5 20)">
      <mask id="logo__bx" fill="#fff">
        <use xlink:href="#logo__bv"/>
      </mask>
      <path fill="url(#logo__bw)" fill-rule="nonzero" d="M6.3 4.8A2.4 2.4 0 1 1 2 2.4a2.4 2.4 0 0 1 4.3 2.4zM8.5-7.8A14.2 14.2 0 1 0-5 17.1 14.2 14.2 0 0 0 8.5-7.8z" mask="url(#logo__bx)"/>
    </g>
    <g transform="translate(12.7 20.3)">
      <mask id="logo__bA" fill="#fff">
        <use xlink:href="#logo__by"/>
      </mask>
      <path fill="url(#logo__bz)" fill-rule="nonzero" d="M6 4.5A2.4 2.4 0 1 1 1.9 2 2.4 2.4 0 0 1 6 4.5zM8.3-8.1A14.2 14.2 0 1 0-5.4 16.8 14.2 14.2 0 0 0 8.2-8.1z" mask="url(#logo__bA)"/>
    </g>
    <g transform="translate(13 20.6)">
      <mask id="logo__bD" fill="#fff">
        <use xlink:href="#logo__bB"/>
      </mask>
      <path fill="url(#logo__bC)" fill-rule="nonzero" d="M5.8 4.2a2.4 2.4 0 1 1-4.3-2.3 2.4 2.4 0 0 1 4.3 2.3zM7.9-8.4a14.2 14.2 0 1 0-13.5 25 14.2 14.2 0 0 0 13.5-25z" mask="url(#logo__bD)"/>
    </g>
    <g transform="translate(0 10.4)">
      <mask id="logo__bF" fill="#fff">
        <use xlink:href="#logo__bE"/>
      </mask>
      <path fill="#D2DB2F" fill-rule="nonzero" d="M15 15.9a2.8 2.8 0 1 0 2.5-4.9A2.8 2.8 0 0 0 15 16zm2.7-5.2a3.1 3.1 0 1 1-3 5.5 3.1 3.1 0 0 1 3-5.5z" mask="url(#logo__bF)"/>
    </g>
    <g transform="translate(12.7 20)">
      <mask id="logo__bI" fill="#fff">
        <use xlink:href="#logo__bG"/>
      </mask>
      <path fill="url(#logo__bH)" fill-rule="nonzero" d="M6 4.8a2.4 2.4 0 1 1-4.2-2.4A2.4 2.4 0 0 1 6 4.8zM8.3-7.8A14.2 14.2 0 1 0-5.4 17.1 14.2 14.2 0 0 0 8.2-7.8z" mask="url(#logo__bI)"/>
    </g>
    <g transform="translate(7 16.6)">
      <mask id="logo__bL" fill="#fff">
        <use xlink:href="#logo__bJ"/>
      </mask>
      <path fill="url(#logo__bK)" fill-rule="nonzero" d="M11.7 8.2a2.4 2.4 0 1 1-4.3-2.4 2.4 2.4 0 0 1 4.3 2.4zM14-4.4A14.2 14.2 0 1 0 .3 20.5 14.2 14.2 0 0 0 13.9-4.4z" mask="url(#logo__bL)"/>
    </g>
    <g transform="translate(3.7 14)">
      <mask id="logo__bN" fill="#fff">
        <use xlink:href="#logo__bM"/>
      </mask>
      <path d="M15.1 10.7a2.4 2.4 0 1 1-4.3-2.3 2.4 2.4 0 0 1 4.3 2.3zm2.2-12.6a14.2 14.2 0 1 0-13.6 25A14.2 14.2 0 0 0 17.3-2z" mask="url(#logo__bN)"/>
    </g>
    <g transform="translate(4.5 14.4)">
      <mask id="logo__bQ" fill="#fff">
        <use xlink:href="#logo__bO"/>
      </mask>
      <path fill="url(#logo__bP)" fill-rule="nonzero" d="M14.3 10.4A2.4 2.4 0 1 1 10 8.1a2.4 2.4 0 0 1 4.3 2.3zM16.4-2A14.2 14.2 0 1 0 3 22.7 14.2 14.2 0 0 0 16.4-2z" mask="url(#logo__bQ)"/>
    </g>
    <g transform="translate(4.8 15)">
      <mask id="logo__bT" fill="#fff">
        <use xlink:href="#logo__bR"/>
      </mask>
      <path fill="url(#logo__bS)" fill-rule="nonzero" d="M14 9.9a2.4 2.4 0 1 1-4.3-2.4A2.4 2.4 0 0 1 14 10zm2.2-12.6A14.2 14.2 0 1 0 2.6 22.2 14.2 14.2 0 0 0 16.2-2.7z" mask="url(#logo__bT)"/>
    </g>
    <g transform="translate(6 16)">
      <mask id="logo__bW" fill="#fff">
        <use xlink:href="#logo__bU"/>
      </mask>
      <path fill="url(#logo__bV)" fill-rule="nonzero" d="M12.9 8.7a2.4 2.4 0 1 1-4.3-2.3 2.4 2.4 0 0 1 4.3 2.3zM15-3.8A14.2 14.2 0 1 0 1.4 21 14.2 14.2 0 0 0 15-3.8z" mask="url(#logo__bW)"/>
    </g>
    <g transform="translate(6.2 15.2)">
      <mask id="logo__bY" fill="#fff">
        <use xlink:href="#logo__bX"/>
      </mask>
      <path d="M12.6 9.6a2.4 2.4 0 1 1-4.3-2.4 2.4 2.4 0 0 1 4.3 2.4zM14.7-3A14.2 14.2 0 1 0 1.2 22 14.2 14.2 0 0 0 14.7-3z" mask="url(#logo__bY)"/>
    </g>
    <g transform="translate(0 10.4)">
      <mask id="logo__ca" fill="#fff">
        <use xlink:href="#logo__bZ"/>
      </mask>
      <path fill="#009949" fill-rule="nonzero" d="M21.6 18.3a7.4 7.4 0 1 0-13-7.1 7.4 7.4 0 0 0 13 7zM7.8 10.7a8.3 8.3 0 1 1 14.6 8 8.3 8.3 0 0 1-14.6-8z" mask="url(#logo__ca)"/>
    </g>
    <g transform="translate(5.1 15.5)">
      <mask id="logo__cc" fill="#fff">
        <use xlink:href="#logo__cb"/>
      </mask>
      <path d="M13.7 9.3a2.4 2.4 0 1 1-4.3-2.4 2.4 2.4 0 0 1 4.3 2.4zm2.2-12.6A14.2 14.2 0 1 0 2.3 21.6 14.2 14.2 0 0 0 15.9-3.3z" mask="url(#logo__cc)"/>
    </g>
    <g transform="translate(1.1 11)">
      <mask id="logo__cf" fill="#fff">
        <use xlink:href="#logo__cd"/>
      </mask>
      <path fill="url(#logo__ce)" fill-rule="nonzero" d="M17.7 13.8a2.4 2.4 0 1 1-4.3-2.3 2.4 2.4 0 0 1 4.3 2.3zm2.1-12.5A14.2 14.2 0 1 0 6.3 26 14.2 14.2 0 0 0 19.8 1.3z" mask="url(#logo__cf)"/>
    </g>
    <g transform="translate(1.7 11.8)">
      <mask id="logo__ci" fill="#fff">
        <use xlink:href="#logo__cg"/>
      </mask>
      <path fill="url(#logo__ch)" fill-rule="nonzero" d="M17.1 13a2.4 2.4 0 1 1-4.3-2.4 2.4 2.4 0 0 1 4.3 2.4zM19.3.4A14.2 14.2 0 1 0 5.7 25.3 14.2 14.2 0 0 0 19.3.4z" mask="url(#logo__ci)"/>
    </g>
    <g transform="translate(1.1 13)">
      <mask id="logo__ck" fill="#fff">
        <use xlink:href="#logo__cj"/>
      </mask>
      <path d="M17.7 11.8a2.4 2.4 0 1 1-4.3-2.3 2.4 2.4 0 0 1 4.3 2.3zM19.8-.7A14.2 14.2 0 1 0 6.3 24.2a14.2 14.2 0 0 0 13.5-25z" mask="url(#logo__ck)"/>
    </g>
    <g transform="translate(2.8 13.2)">
      <mask id="logo__cm" fill="#fff">
        <use xlink:href="#logo__cl"/>
      </mask>
      <path d="M16 11.6a2.4 2.4 0 1 1-4.3-2.4 2.4 2.4 0 0 1 4.3 2.4zM18-1A14.2 14.2 0 1 0 4.6 23.9 14.2 14.2 0 0 0 18-1z" mask="url(#logo__cm)"/>
    </g>
    <g transform="translate(1.7 11.5)">
      <mask id="logo__co" fill="#fff">
        <use xlink:href="#logo__cn"/>
      </mask>
      <path d="M17.1 13.3a2.4 2.4 0 1 1-4.3-2.4 2.4 2.4 0 0 1 4.3 2.4zM19.3.7A14.2 14.2 0 1 0 5.7 25.6 14.2 14.2 0 0 0 19.3.7z" mask="url(#logo__co)"/>
    </g>
    <g>
      <g transform="translate(0 10.4)">
        <mask id="logo__cq" fill="#fff">
          <use xlink:href="#logo__cp"/>
        </mask>
        <path fill="#9EC73D" fill-rule="nonzero" d="M16.3 16.2a3.5 3.5 0 1 0 .2-7 3.5 3.5 0 0 0-.2 7zm.3-7.5a4 4 0 1 1-.3 8 4 4 0 0 1 .3-8z" mask="url(#logo__cq)"/>
      </g>
    </g>
  </g>

  <g class="logo-text" fill="#1a1919" fill-rule="evenodd" style="opacity: 0;">
    <path d="M46.7 38.8c-5 0-12-1.2-12-13.5 0-12.1 8-13.7 12.6-13.7 3.7 0 6.4 1.3 6.4 1.3v5.9s-3.7-1-5.6-1c-2.6 0-5 .9-5 7.5 0 6 1.7 7.2 4.6 7.2 2.4 0 6-1 6-1v6s-3.3 1.3-7 1.3"/>
    <path d="M67 16.7c-3 0-3.6 2.2-3.7 6.4h7c-.2-4.4-.8-6.4-3.4-6.4zm11.2 11H63.3c.1 4.2 2.3 4.9 5.2 4.9 3 0 8.3-1.3 8.3-1.3v6.2s-4.2 1.3-8.8 1.3c-5.7 0-13-1.3-13-13.6 0-11.1 6.4-13.6 12-13.6 5 0 11.5 2.4 11.3 13.6v2.6z"/>
    <path d="M96.2 38.3v-18c0-1.6-.5-2.1-2.2-2.1-2.4 0-5.2 1.6-5.2 1.6v18.5h-8.4V12.1h7.1l1.1 2.6s3.8-3.1 8.5-3.1c4.3 0 7.5 1.9 7.5 7.8v19h-8.4"/>
    <path d="M137.5 18.7c-2 0-3.3.9-3.3.9v18.7h-8.4V12.1h6.6l1.2 2.5s2-3 5-3c1.7 0 3 .3 3 .3v7.3s-2.1-.5-4-.5"/>
    <path d="M144 38.3h8.4V12.1H144z"/>
    <path d="M166.6 38.8c-5 0-12-1.2-12-13.5 0-12.1 8-13.7 12.6-13.7 3.6 0 6.4 1.3 6.4 1.3v5.9s-3.7-1-5.6-1c-2.6 0-5 .9-5 7.5 0 6 1.7 7.2 4.6 7.2 2.3 0 6-1 6-1v6s-3.3 1.3-7 1.3"/>
    <path d="M118.7 32.6c-.9 0-1.7-.2-1.7-1.7V17h5l.7-4.8H117V7l-8.3 2.5V12h-2.3v4.7h2.3v14.4c0 6.7 4 7.6 8 7.6 3.5 0 6.5-1.1 6.5-1.1v-5.9s-3.3.8-4.5.8"/>
  </g>

  <g class="logo-payoff-connect" fill="#6cb644" fill-rule="evenodd" style="opacity: 0;">
    <path d="M47.3 38.8c-4 0-10.8-1-10.8-13.3S43.7 12 47.5 12c2.8 0 5 .9 5 .9v3.7s-2.5-.9-4.8-.9c-3.2 0-6.9.8-6.9 9.8 0 8.3 3.5 9.4 6.5 9.4 2.3 0 5.1-1 5.1-1v4s-2.5.9-5.1.9"/>
    <path d="M65.3 15.3c-2.6 0-6.1.7-6.1 10 0 9.4 4 10 6.1 10 2.2 0 6.2-.7 6.2-10 0-9.4-3.5-10-6.2-10zm0 23.5c-4.6 0-10.5-1.6-10.5-13.4 0-11.6 6-13.4 10.5-13.4 4.6 0 10.5 1.5 10.5 13.4 0 12-5.9 13.4-10.5 13.4z"/>
    <path d="M96.8 38.3V19.5c0-3.5-2.2-3.6-4.1-3.6-3.5 0-7 2.6-7 2.6v19.8h-4.4V12.4h3.3l1 3.2s3.7-3.6 8.2-3.6c4.2 0 7.3 1.7 7.3 7.7v18.6h-4.3"/>
    <path d="M124 38.3V19.5c0-3.5-2.1-3.6-4-3.6-3.6 0-7 2.6-7 2.6v19.8h-4.4V12.4h3.3l1 3.2s3.7-3.6 8.2-3.6c4.2 0 7.3 1.7 7.3 7.7v18.6h-4.3"/>
    <path d="M144.1 15.3c-3.1 0-5.1 1.5-5.3 8.4H149c0-7.3-2.3-8.4-4.9-8.4zm9.1 11.4h-14.5c.2 8.3 4.2 8.2 6.6 8.2 2.5 0 6.6-1.2 6.6-1.2v3.9s-3.3 1.2-6.6 1.2c-5 0-10.8-1-10.8-13.4 0-11 4.7-13.4 9.6-13.4 4.5 0 9.6 2 9.2 13.4v1.3z"/>
    <path d="M168.4 38.8c-4 0-10.8-1-10.8-13.3s7.2-13.5 11-13.5c2.8 0 5 .9 5 .9v3.7s-2.5-.9-4.8-.9c-3.2 0-6.8.8-6.8 9.8 0 8.3 3.4 9.4 6.4 9.4 2.3 0 5.2-1 5.2-1v4s-2.6.9-5.2.9"/>
    <path d="M186 38.8c-3.7 0-5.8-1.4-5.8-6.5V15.8h-4.4v-3.4h4.4l.1-5.8 4.2-2v7.8h5.8l-.5 3.4h-5.3v16.7c0 2.2.8 2.6 2.4 2.6 1.6 0 4.4-.9 4.4-.9V38s-2.6.9-5.4.9"/>
    <path d="M198.5 38.8c-1.9 0-3.4-1.6-3.4-3.6s1.5-3.5 3.4-3.5c2 0 3.4 1.6 3.4 3.5 0 2-1.4 3.6-3.4 3.6"/>
  </g>

  <g class="logo-payoff-engage" fill="#009949" fill-rule="evenodd" style="opacity: 0;">
    <path d="M46.2 15.3c-3.2 0-5.2 1.5-5.4 8.4H51c0-7.3-2.2-8.4-4.8-8.4zm9 11.4H40.9C41 35 44.9 35 47.4 35c2.4 0 6.6-1.2 6.6-1.2v3.9s-3.4 1.2-6.6 1.2c-5 0-10.9-1-10.9-13.4 0-11 4.8-13.4 9.7-13.4 4.4 0 9.5 2 9.1 13.4v1.3z"/>
    <path d="M76.6 38.3V19.5c0-3.5-2.2-3.6-4.1-3.6-3.6 0-7 2.6-7 2.6v19.8H61V12.4h3.2l1 3.2s3.8-3.6 8.3-3.6c4.2 0 7.3 1.7 7.3 7.7v18.6h-4.3"/>
    <path d="M95.8 15c-3.4 0-4.8 1.9-4.8 5.6 0 3.5 1.6 5.7 4.8 5.7 3.4 0 4.8-2.2 4.8-5.7 0-3.4-1.6-5.6-4.8-5.6zm3 22l-6.5-.3a8 8 0 0 1-1.1-.1c-.7 1-1.3 2.1-1.3 3.6 0 2.8 1.6 4.8 5.3 4.8 5.6 0 7.6-1.8 7.6-4.8 0-2.5-1-3-4-3.1zm4.1-21.2c1 1.4 1.9 2.7 1.9 4.8 0 5.8-3.5 8.8-9 8.8-1.4 0-2.6-.3-3.8-.7-1 1-1.5 1.7-1.5 2.5 0 1.4.6 1.7 3 1.8l5.8.3c4.9.2 7.5 1.7 7.5 6.5 0 6.4-4.7 8.3-11.6 8.3-5.4 0-9.2-2-9.2-7a7 7 0 0 1 2.9-5.3c-1.4-.8-2-2-2-3.6 0-1.9 1.6-3.5 3-4.7-1.8-1.5-3-3.4-3-6.9 0-6 3.5-8.7 9-8.7 1.9 0 2.6.5 4.6.5h6.9v3.4h-4.5z"/>
    <path d="M123 25l-3 .1c-4 0-6.6 1-6.6 5.2 0 4.3 2 5 4.1 5 3 0 5.6-2.8 5.6-2.8v-7.4zm.7 13.3l-.5-3s-2.2 3.5-6.7 3.5c-3.1 0-7.4-1.1-7.4-8.1s5.4-8.3 9.8-8.3h4.2v-2.8c0-3.6-2-4-4.9-4-2.3 0-6 1-7 1.4v-3.7S115 12 119 12c4.6 0 8.5 1.2 8.5 8.3v18h-3.7z"/>
    <path d="M142.3 15c-3.5 0-4.8 1.9-4.8 5.6 0 3.5 1.6 5.7 4.8 5.7 3.3 0 4.8-2.2 4.8-5.7 0-3.4-1.6-5.6-4.8-5.6zm3 22l-6.5-.3a8 8 0 0 1-1.1-.1c-.7 1-1.3 2.1-1.3 3.6 0 2.8 1.6 4.8 5.3 4.8 5.6 0 7.6-1.8 7.6-4.8 0-2.5-1.1-3-4-3.1zm4.1-21.2c1 1.4 1.8 2.7 1.8 4.8 0 5.8-3.4 8.8-8.9 8.8-1.4 0-2.6-.3-3.8-.7-1 1-1.5 1.7-1.5 2.5 0 1.4.6 1.7 2.9 1.8l6 .3c4.8.2 7.4 1.7 7.4 6.5 0 6.4-4.7 8.3-11.6 8.3-5.4 0-9.2-2-9.2-7a7 7 0 0 1 2.9-5.3c-1.4-.8-2-2-2-3.6 0-1.9 1.6-3.5 3-4.7-1.9-1.5-3-3.4-3-6.9 0-6 3.5-8.7 9-8.7 1.8 0 2.6.5 4.6.5h6.9v3.4h-4.5z"/>
    <path d="M165.4 15.3c-3.1 0-5 1.5-5.3 8.4h10.2c0-7.3-2.3-8.4-4.9-8.4zm9.2 11.4H160c.2 8.3 4 8.2 6.5 8.2s6.7-1.2 6.7-1.2v3.9s-3.4 1.2-6.7 1.2c-5 0-10.8-1-10.8-13.4 0-11 4.8-13.4 9.6-13.4 4.5 0 9.6 2 9.2 13.4v1.3z"/>
    <path d="M180.7 38.8c-2 0-3.4-1.6-3.4-3.6s1.5-3.5 3.4-3.5c2 0 3.4 1.6 3.4 3.5 0 2-1.5 3.6-3.4 3.6"/>
  </g>

  <g class="logo-payoff-succeed" fill="#1A1919" fill-rule="evenodd" style="opacity: 0;">
    <path d="M42.5 38.8c-2.7 0-5.6-1-5.6-1v-4s3.6 1.2 5.6 1.2c2.5 0 5-.6 5-3.8 0-2.8-1.4-3.3-3.5-4.1l-2.5-1c-1.7-.8-5-2.4-5-7s3.4-7.2 8.4-7.2c3.4 0 5.8 1 5.8 1v3.7s-3-1-5.7-1c-2.4 0-4.4.7-4.4 3.3 0 2.7 1.8 3.2 3.1 3.8l2.5 1c2.8 1 5.5 2.8 5.5 7.5 0 6.4-4.7 7.6-9.2 7.6"/>
    <path d="M72 38.3l-.5-3.4s-3.5 3.9-7.8 3.9c-4 0-7-1.9-7-7.6V12.4h4.4v17.9c0 3 .7 4.5 3.6 4.5 3.1 0 6.5-2.7 6.5-2.7V12.4h4.4v26H72"/>
    <path d="M92 38.8c-4 0-10.7-1-10.7-13.3S88.5 12 92.3 12c2.7 0 4.9 1 4.9 1v3.7s-2.4-.9-4.8-.9c-3.1 0-6.8.8-6.8 9.8 0 8.3 3.4 9.4 6.4 9.4 2.3 0 5.2-1 5.2-1v4s-2.5.9-5.2.9"/>
    <path d="M110.9 38.8c-4 0-10.8-1-10.8-13.3s7.2-13.6 11-13.6c2.8 0 5 1 5 1v3.7s-2.5-.9-4.8-.9c-3.2 0-6.8.8-6.8 9.8 0 8.3 3.4 9.4 6.4 9.4 2.3 0 5.2-1 5.2-1v4s-2.5.9-5.2.9"/>
    <path d="M128.4 15.3c-3.1 0-5.1 1.5-5.3 8.4h10.2c0-7.3-2.3-8.4-4.9-8.4zm9.1 11.4h-14.4c.1 8.3 4 8.2 6.5 8.2s6.6-1.2 6.6-1.2v3.9s-3.3 1.2-6.6 1.2c-5 0-10.8-1-10.8-13.4 0-11 4.7-13.5 9.6-13.5 4.5 0 9.6 2 9.2 13.5v1.3z"/>
    <path d="M151.8 15.3c-3.1 0-5 1.5-5.3 8.4h10.2c0-7.3-2.3-8.4-4.9-8.4zm9.2 11.4h-14.5c.2 8.3 4 8.2 6.5 8.2s6.7-1.2 6.7-1.2v3.9s-3.4 1.2-6.7 1.2c-5 0-10.8-1-10.8-13.4 0-11 4.8-13.5 9.6-13.5 4.5 0 9.6 2 9.2 13.5v1.3z"/>
    <path d="M181.5 17.5a8.5 8.5 0 0 0-5-1.9c-3 0-6.6 1.2-6.6 9.8 0 9 3.4 9.8 6 9.8s4.8-1.7 5.6-2.4V17.5zm1 20.8l-.4-2.8a9 9 0 0 1-7.1 3.3c-3.7 0-9.4-1.7-9.4-13.4 0-12 7.1-13.5 10.4-13.5 3.2 0 5 1.8 5.5 2.4V3.2h4.4v35.1h-3.3z"/>
    <path d="M194.1 38.8c-2 0-3.4-1.6-3.4-3.6s1.5-3.5 3.4-3.5c2 0 3.4 1.6 3.4 3.5 0 2-1.4 3.6-3.4 3.6"/>
  </g>
</g>

  <style type="text/css">
    @keyframes logoswirl {
      0% { opacity: 0; }
      100% { opacity: 1; }
    }

    @keyframes logotext {
      0% { opacity: 0; }
      100% { opacity: 1; }
    }

    @keyframes logopayoff {
      0% { opacity: 0; }
      5% { opacity: 1; }
      95% { opacity: 1; }
      100% { opacity: 0; }
    }

    .logo-swirl {
      opacity: 0;
      animation: logoswirl .125s linear 0s forwards 1;
    }

    .logo-text {
      opacity: 0;
      animation: logotext .125s linear 4.75s forwards 1;
    }

    .logo-payoff-connect {
      opacity: 0;
      animation: logopayoff 1s linear 1.125s forwards 1;
    }

    .logo-payoff-engage {
      opacity: 0;
      animation: logopayoff 1s linear 2.125s forwards 1;
    }

    .logo-payoff-succeed {
      opacity; );
      animation: logopayoff 1s linear 3.125s forwards 1;
    }
  </style>
</svg>

